<?xml version="1.0" encoding="UTF-8"?>
<svg xmlns="http://www.w3.org/2000/svg" xmlns:xlink="http://www.w3.org/1999/xlink" viewBox="0 0 1025.64 1025">
  <defs>
    <style>
      .cls-1 {
        fill: #fcb017;
      }

      .cls-2 {
        fill: url(#radial-gradient-3);
      }

      .cls-3 {
        fill: url(#radial-gradient-2);
      }

      .cls-4 {
        fill: url(#radial-gradient);
        stroke: #231f20;
        stroke-miterlimit: 10;
      }
    </style>
    <radialGradient id="radial-gradient" cx="544.5" cy="448.5" fx="777.27" fy="-143.56" r="655.23" gradientUnits="userSpaceOnUse">
      <stop offset=".23" stop-color="#c5692f"/>
      <stop offset=".39" stop-color="#c25f2d"/>
      <stop offset=".66" stop-color="#ba4628"/>
      <stop offset=".77" stop-color="#b73a26"/>
      <stop offset=".81" stop-color="#b73331"/>
      <stop offset=".93" stop-color="#b7244b"/>
      <stop offset="1" stop-color="#b71f55"/>
    </radialGradient>
    <radialGradient id="radial-gradient-2" cx="640.91" cy="489.5" fx="640.91" fy="489.5" r="628.87" gradientUnits="userSpaceOnUse">
      <stop offset=".06" stop-color="#f6891f"/>
      <stop offset=".85" stop-color="#d33427"/>
    </radialGradient>
    <radialGradient id="radial-gradient-3" cx="1048.91" cy="200.17" fx="1048.91" fy="200.17" r="1315.91" gradientUnits="userSpaceOnUse">
      <stop offset="0" stop-color="#fcb017"/>
      <stop offset="1" stop-color="#f47b20"/>
    </radialGradient>
  </defs>
  <g id="Layer_2" data-name="Layer 2">
    <circle class="cls-4" cx="512.5" cy="512.5" r="512"/>
  </g>
  <g id="Layer_6" data-name="Layer 6">
    <path class="cls-1" d="M1025.64,529.79l-1.43.09c0-.07,0-.14,0-.2.47.04.94.08,1.42.11Z"/>
    <path class="cls-3" d="M1024.22,529.68c0,.06,0,.13,0,.2-9.16,274.72-234.76,494.62-511.71,494.62-256.02,0-468.15-187.91-505.99-433.34-.7-4.5-1.33-9.03-1.91-13.57,37.56-17.6,89.97-46.9,88.25-72.65-2.67-40,45.33-64,45.33-64,0,0-18.6,121.89,36.07,127.23,54.67,5.33,69.33-45.34,69.33-45.34,0,0-16.06-61.89-38.73-73.89,0,0,77.4,15.56,102.73,63.56,9.79,18.54,15.59,40.01,19.03,59.38,5.47,30.79,4.97,56.29,4.97,56.29,0,0,23.49-24.04,37.25-58.83,7.75-19.56,12.41-42.52,8.09-66.51,0,0,31.45,26.01,57.69,62.55,12.72,17.71,24.22,37.9,30.31,58.79,10.98,37.67,35.94-9.99,48.64-63.54,8.87-37.44,11.76-77.75-.31-93.8,0,0,68.76,17.68,104.04,87.55,1.71,3.4,3.35,6.91,4.89,10.56,17.23,40.65,33.03,17.93,44.28-13.52,10.52-29.41,17.06-66.48,17.06-66.48,0,0,4-45.33,38.66-60,0,0-20.08,82.81-12.52,123.88,1.98,10.78,5.86,18.68,12.52,21.45,15.6,6.5,32.79-8.21,46.31-24.99,14.21-17.63,24.36-37.56,24.36-37.56,0,0,13.92,13.32,18.37,34.98,2.44,11.85,2.04,26.2-5.04,42.24-15.86,35.95,47.92-4.05,78.86-46.68s13.66-118.63,7.88-132.76c1.08.4,62.43,118.34,131.3,124.18Z"/>
    <path class="cls-2" d="M512.5,974.5c-56.51,0-111.69-10.07-164-29.94-50.54-19.2-97.01-46.96-138.1-82.51-77.31-66.89-130.22-157.31-150.53-256.52,12.48-6.95,151.2,144.37,174.38,146.64,4.29.42,13.71-148.25,35.43-174.85,2.01-2.47,3.86-4.93,5.55-7.35.78,3.44,49.69,176.87,49.69,176.87l31.89-20.58c11.63-7.51,19.85-19.28,22.89-32.79,5.43-24.19,14.23-62.61,24.92-82.65,5.69,9.74,9.87,19,12.31,27.35,13.39,45.93,4,146,72,167.34,48.16,15.11,62.01-42.18,65.33-56,17.33-72-11.26-173.82,2.35-153.69,66.98,99.03,7.05-29.89,7.71-32.96,2.98,4.32,93.94,72.23,111.27,81.32,37.39,19.59,108.05,25.53,160,5.33,50.02-19.45,103.6-81.06,113.33-102.67,12.8,3.32,5.33,38.67,0,61.33-13.35,103.16-39.24,162.78-114.94,236.14-86.64,83.96-200.81,130.2-321.48,130.2Z"/>
  </g>
</svg>