<?xml version="1.0" encoding="UTF-8"?>
<svg xmlns="http://www.w3.org/2000/svg" xmlns:xlink="http://www.w3.org/1999/xlink" viewBox="0 0 1025.25 1025.25">
  <defs>
    <style>
      .cls-1 {
        fill: #fff;
      }

      .cls-2 {
        fill: none;
      }

      .cls-3 {
        fill: #3f4ea1;
      }

      .cls-3, .cls-4, .cls-5, .cls-6 {
        stroke: #231f20;
        stroke-miterlimit: 10;
      }

      .cls-4 {
        fill: url(#radial-gradient-3);
      }

      .cls-7 {
        fill: url(#radial-gradient-2);
      }

      .cls-5 {
        fill: url(#radial-gradient);
      }

      .cls-6 {
        fill: #9fabcf;
      }
    </style>
    <radialGradient id="radial-gradient" cx="544.5" cy="448.5" fx="777.27" fy="-143.56" r="655.23" gradientUnits="userSpaceOnUse">
      <stop offset=".23" stop-color="#0c74b8"/>
      <stop offset=".38" stop-color="#156db3"/>
      <stop offset=".63" stop-color="#2e5aa8"/>
      <stop offset=".77" stop-color="#3f4ea1"/>
      <stop offset=".84" stop-color="#373f8b"/>
      <stop offset=".94" stop-color="#2e2d71"/>
      <stop offset="1" stop-color="#2b2768"/>
    </radialGradient>
    <radialGradient id="radial-gradient-2" cx="786.25" cy="264.17" fx="786.25" fy="264.17" r="144.62" gradientUnits="userSpaceOnUse">
      <stop offset="0" stop-color="#fff"/>
      <stop offset=".15" stop-color="#fff"/>
      <stop offset=".16" stop-color="#fff"/>
      <stop offset=".21" stop-color="#fff" stop-opacity=".83"/>
      <stop offset=".27" stop-color="#fff" stop-opacity=".63"/>
      <stop offset=".33" stop-color="#fff" stop-opacity=".46"/>
      <stop offset=".4" stop-color="#fff" stop-opacity=".32"/>
      <stop offset=".47" stop-color="#fff" stop-opacity=".2"/>
      <stop offset=".54" stop-color="#fff" stop-opacity=".11"/>
      <stop offset=".62" stop-color="#fff" stop-opacity=".05"/>
      <stop offset=".71" stop-color="#fff" stop-opacity=".01"/>
      <stop offset=".83" stop-color="#fff" stop-opacity="0"/>
    </radialGradient>
    <radialGradient id="radial-gradient-3" cx="514.18" cy="775.63" fx="756.76" fy="400.76" r="506.65" gradientUnits="userSpaceOnUse">
      <stop offset=".46" stop-color="#3e9bd6"/>
      <stop offset=".53" stop-color="#3290cd"/>
      <stop offset=".67" stop-color="#1f80bf"/>
      <stop offset=".77" stop-color="#187aba"/>
    </radialGradient>
  </defs>
  <g id="Layer_2" data-name="Layer 2">
    <circle class="cls-5" cx="512.5" cy="512.5" r="512"/>
  </g>
  <g id="Layer_4" data-name="Layer 4">
    <circle class="cls-7" cx="512.87" cy="512.87" r="512.37"/>
  </g>
  <g id="Layer_1" data-name="Layer 1">
    <path class="cls-4" d="M1020.95,581.07c-33.51,250.35-247.93,443.43-507.45,443.43S44.99,836.27,7.41,590.54c25.26,24.92,61.62,51.6,104.59,50.58,46.6-1.1,71.24-34.05,101.76-64.41,4.57-4.55,9.28-9.04,14.21-13.36,17.67-15.46,38.25-28.69,66.03-34.34,55.59-11.3,71.86,21.6,186.88,60,8.07,2.69,16.63,5.41,25.72,8.15,4.02,1.21,8.16,2.42,12.4,3.64,97.11,27.84,145.66,41.76,197,29.3,19.68-4.78,36.31-11.87,50.97-20.14,8.61-4.85,16.54-10.1,24.02-15.52,41.91-30.36,69.55-65.94,122.01-65.43,35.08.34,65.12,16.65,88.01,34.59,5.72,4.48,11,9.06,15.79,13.53,1.43,1.32,2.81,2.64,4.15,3.94Z"/>
    <path class="cls-1" d="M1023.71,555.66c-.48,5.7-1.05,11.38-1.71,17.02-.33,2.81-.68,5.6-1.05,8.39-1.34-1.3-2.72-2.62-4.15-3.94-4.79-4.47-10.07-9.05-15.79-13.53-22.89-17.94-52.93-34.25-88.01-34.59-52.46-.51-80.1,35.07-122.01,65.43-7.48,5.42-15.41,10.67-24.02,15.52-14.66,8.27-31.29,15.36-50.97,20.14-51.34,12.46-99.89-1.46-197-29.3-4.24-1.22-8.38-2.43-12.4-3.64-9.09-2.74-17.65-5.46-25.72-8.15-115.02-38.4-131.29-71.3-186.88-60-27.78,5.65-48.36,18.88-66.03,34.34-4.93,4.32-9.64,8.81-14.21,13.36-30.52,30.36-55.16,63.31-101.76,64.41-42.97,1.02-79.33-25.66-104.59-50.58-1.14-7.44-2.12-14.93-2.93-22.48-.34-3.15-.65-6.32-.93-9.49,1.85,1.88,3.77,3.78,5.75,5.69,25.15,24.22,60.56,49.24,102.2,48.26,38.89-.91,62.48-24.02,86.95-49.28,4.63-4.77,9.29-9.61,14.08-14.4,21.15-21.13,45.02-41.12,80.97-48.43,59.94-12.19,74.16,27.01,215.76,69.1,3.02.89,6.1,1.79,9.24,2.69,7.94,2.28,15.55,4.46,22.87,6.53,82.19,23.41,126.99,34.21,174.13,22.77,7.56-1.84,14.67-4.01,21.38-6.47,10.09-3.68,19.3-7.99,27.84-12.7,58.04-31.99,85.33-82.52,147.78-81.92,44.94.43,81.62,27.08,105.57,49.77,1.97,1.86,3.84,3.69,5.64,5.48Z"/>
    <path class="cls-6" d="M212.53,548.84c-4.79,4.79-9.45,9.63-14.08,14.4-25.76-21.37-54.03-37.3-92.44-36.45-41.26.91-74.88,20.75-96.71,37.47-1.98-1.91-3.9-3.81-5.75-5.69-.44-4.89-.81-9.8-1.1-14.73,21.21-17.55,57.84-42.33,104.05-43.34,45.27-1,76.45,21.3,106.03,48.34Z"/>
    <path class="cls-3" d="M198.45,563.24c-24.47,25.26-48.06,48.37-86.95,49.28-41.64.98-77.05-24.04-102.2-48.26,21.83-16.72,55.45-36.56,96.71-37.47,38.41-.85,66.68,15.08,92.44,36.45Z"/>
    <path class="cls-6" d="M764.72,582.33c-8.54,4.71-17.75,9.02-27.84,12.7-32.89-16.06-68.34-30.68-115.87-31.24-31.72-.37-57.46,5.66-79.64,14.94-7.32-2.07-14.93-4.25-22.87-6.53-3.14-.9-6.22-1.8-9.24-2.69,29.16-18.16,63.69-32.58,112.24-32.01,60.89.72,101.95,24.53,143.22,44.83Z"/>
    <path class="cls-3" d="M736.88,595.03c-6.71,2.46-13.82,4.63-21.38,6.47-47.14,11.44-91.94.64-174.13-22.77,22.18-9.28,47.92-15.31,79.64-14.94,47.53.56,82.98,15.18,115.87,31.24Z"/>
    <path class="cls-2" d="M1024.5,544.62c-2.03,1.8-4.17,3.66-6.43,5.56"/>
    <path class="cls-2" d="M2.45,543.84c-.32.26-.64.52-.95.78"/>
    <path class="cls-2" d="M1024.5,556.46c-.26-.26-.53-.53-.79-.8"/>
    <path class="cls-2" d="M3.55,558.57c-.69-.71-1.38-1.41-2.05-2.11"/>
    <path class="cls-2" d="M1024.01,570.91c-.66.58-1.33,1.17-2.01,1.77"/>
    <path class="cls-2" d="M4.48,568.06c-1.21.97-2.37,1.92-3.48,2.85"/>
    <path class="cls-2" d="M7.41,590.54c-1.87-1.84-3.67-3.66-5.41-5.47"/>
    <path class="cls-2" d="M1025,585.07c-1.3-1.31-2.65-2.65-4.05-4"/>
  </g>
  <g id="Layer_5" data-name="Layer 5">
    <circle class="cls-1" cx="290.25" cy="450.83" r="29.33"/>
    <circle class="cls-1" cx="239.25" cy="403.83" r="10.33"/>
    <circle class="cls-1" cx="322.58" cy="348.5" r="13.67"/>
    <circle class="cls-1" cx="924.91" cy="468.17" r="12"/>
    <circle class="cls-1" cx="987.58" cy="436.17" r="14.67"/>
    <circle class="cls-1" cx="962.91" cy="358.5" r="10"/>
    <circle class="cls-1" cx="82.25" cy="446.83" r="17.33"/>
  </g>
</svg>